<svg width="167" height="78" viewBox="0 0 167 78" fill="none" xmlns="http://www.w3.org/2000/svg">
<path d="M0.296021 42.6546C0.862304 40.5962 1.26738 38.4798 2.0238 36.4958C7.10382 23.1902 23.6831 19.9702 33.9671 30.2543C39.8036 36.0907 41.3991 44.8288 38.0593 52.6617C35.1741 59.4323 27.519 64.1941 19.7398 64.0411C17.6731 63.9998 15.7965 63.4583 14.5234 61.6933C14.1018 61.1105 13.738 60.4161 13.5851 59.7217C12.9485 56.8076 14.9781 54.7987 18.012 55.3609C21.7569 56.0553 24.9686 54.9558 27.6967 52.4633C32.1774 48.3712 32.3138 41.303 28.0976 36.6446C23.0176 31.0313 14.4407 30.2749 7.95118 34.8217C5.25203 36.7107 3.25144 39.2156 1.37072 41.8486C1.14338 42.1669 0.907771 42.481 0.676298 42.7952C0.556427 42.7497 0.424158 42.7001 0.296021 42.6546Z" fill="#E63946"/>
<path d="M10.5097 35.8464C5.71907 43.6587 5.748 51.3882 9.73678 59.1839C10.9107 61.4739 12.4649 63.5654 13.7297 65.814C14.4903 67.1697 15.2053 68.5999 15.627 70.0838C16.371 72.7169 15.6394 75.0812 13.4238 76.7263C11.2248 78.3632 8.78196 78.3507 6.37629 77.0983C4.01195 75.8665 2.81325 73.6758 1.90802 71.3197C-0.121506 66.0248 -0.328178 60.5356 0.345575 54.9719C0.820922 51.0493 1.84602 47.2878 3.5614 43.7289C5.11558 40.5214 7.28151 37.8429 10.5097 35.8464Z" fill="#E63946"/>
<path d="M26.3781 45.2743L14.8375 51.9374C14.015 52.4086 12.9899 51.8176 12.9899 50.8669V37.5447C12.9899 36.594 14.015 36.003 14.8375 36.4783L26.3781 43.1414C27.1966 43.6126 27.1966 44.799 26.3781 45.2743Z" fill="#4CAF50"/>
<path d="M20.0538 6.97264C20.0538 7.29091 20.0084 7.58852 19.9216 7.86546C19.8306 8.14241 19.7273 8.38214 19.6074 8.58055C19.409 8.53922 19.1651 8.50615 18.8758 8.47721C18.5906 8.44415 18.2764 8.43175 17.9375 8.43175C17.3423 8.43175 16.7471 8.50201 16.1518 8.63842C15.5566 8.77896 15.0482 8.9691 14.6307 9.20471V19.6334C14.4323 19.6954 14.1554 19.7491 13.7958 19.7987C13.4403 19.8483 13.0518 19.8731 12.6343 19.8731C11.7993 19.8731 11.1917 19.7243 10.8032 19.4267C10.4146 19.1291 10.2203 18.5918 10.2203 17.8188V8.66736C10.2203 8.11347 10.3567 7.64226 10.6254 7.25371C10.89 6.86517 11.2661 6.52209 11.7414 6.22448C12.3987 5.82767 13.1882 5.51766 14.1099 5.28619C15.0317 5.05885 16.003 4.94312 17.0157 4.94312C19.0411 4.94312 20.0538 5.621 20.0538 6.97264Z" fill="#4CAF50"/>
<path d="M34.6864 12.6033C35.0212 12.285 35.1907 11.8179 35.1907 11.202C35.1907 9.97026 34.9055 8.88729 34.3268 7.95313C33.7522 7.0231 32.9503 6.28321 31.9294 5.73346C30.9043 5.18785 29.7097 4.91504 28.3374 4.91504C27.4032 4.91504 26.5063 5.06384 25.6424 5.36145C24.7785 5.65906 24.0014 6.11374 23.3194 6.71723C22.6332 7.32484 22.0876 8.09366 21.6784 9.02782C21.2733 9.96199 21.0667 11.0656 21.0667 12.3346C21.0667 14.0624 21.4139 15.5049 22.1124 16.654C22.8068 17.8073 23.7658 18.6712 24.9852 19.2499C26.2087 19.8244 27.5851 20.1138 29.1145 20.1138C30.1644 20.1138 31.1027 20.0145 31.9294 19.8161C32.7519 19.6177 33.4009 19.3201 33.868 18.9192C34.3309 18.5224 34.5665 18.0264 34.5665 17.4311C34.5665 17.0715 34.4714 16.7367 34.2813 16.4184C34.0953 16.1002 33.8514 15.8522 33.5538 15.6744C33.095 15.9307 32.4998 16.1787 31.764 16.4184C31.0283 16.654 30.2471 16.7739 29.4121 16.7739C28.3787 16.7739 27.4859 16.5424 26.7295 16.0754C26.126 15.7034 25.7044 15.1288 25.4729 14.3558L33.2851 13.1985C33.8804 13.1199 34.3474 12.9215 34.6864 12.6033ZM25.2001 11.3715C25.2828 10.4084 25.5969 9.65198 26.1343 9.10223C26.7295 8.49461 27.4735 8.19287 28.3663 8.19287C29.222 8.19287 29.8668 8.43261 30.3049 8.90796C30.7431 9.3833 30.9787 9.90412 31.02 10.458L25.2001 11.3715Z" fill="#4CAF50"/>
<path d="M43.594 4.91895C45.6607 4.91895 47.31 5.35296 48.5417 6.21685C49.7735 7.08074 50.3894 8.41585 50.3894 10.2263V16.9886C50.3894 17.4847 50.2612 17.8856 50.0008 18.1956C49.7404 18.5056 49.4139 18.766 49.0171 18.9851C48.4219 19.3447 47.682 19.6258 46.7974 19.8324C45.9129 20.0391 44.9043 20.1466 43.7717 20.1466C41.7463 20.1466 40.1301 19.7498 38.9273 18.9562C37.7245 18.1625 37.1251 16.9804 37.1251 15.4097C37.1251 14.058 37.5426 13.0205 38.3776 12.2972C39.2125 11.5738 40.4526 11.1315 42.1018 10.9703L46.0658 10.5528V10.1932C46.0658 9.51948 45.8012 9.03174 45.2763 8.73413C44.7513 8.43652 43.9991 8.28771 43.0277 8.28771C42.2713 8.28771 41.5314 8.37865 40.808 8.55639C40.0847 8.73413 39.4316 8.94494 38.857 9.18054C38.6173 9.02347 38.4148 8.7796 38.2453 8.44892C38.0758 8.12238 37.9932 7.7793 37.9932 7.41969C37.9932 6.58473 38.4478 5.98125 39.3655 5.60097C39.94 5.36123 40.6096 5.18762 41.3785 5.08015C42.139 4.97268 42.8789 4.91895 43.594 4.91895ZM43.7717 16.8357C44.2264 16.8357 44.6811 16.7902 45.1275 16.7034C45.5739 16.6125 45.8963 16.5092 46.0947 16.3893V13.5289L43.5899 13.7687C42.9161 13.81 42.3787 13.9464 41.9819 14.1862C41.5851 14.4259 41.3867 14.7814 41.3867 15.2608C41.3867 15.7403 41.5769 16.1206 41.953 16.41C42.3333 16.691 42.9409 16.8357 43.7717 16.8357Z" fill="#4CAF50"/>
<path d="M66.8983 0.446414C66.518 0.148805 65.8939 0 65.0176 0C64.6001 0 64.2157 0.028937 63.8561 0.0868053C63.5006 0.148807 63.2319 0.20667 63.0542 0.268672V5.34869C62.8682 5.27842 62.6698 5.21642 62.4548 5.15442C61.901 4.99321 61.2644 4.91468 60.5493 4.91468C59.177 4.91468 57.9287 5.19575 56.7961 5.74964C55.6636 6.30765 54.7625 7.14674 54.097 8.26691C53.4315 9.39121 53.1008 10.8255 53.1008 12.574C53.1008 14.2439 53.4232 15.6369 54.0681 16.7612C54.7129 17.8813 55.6388 18.7204 56.8416 19.2784C58.0403 19.8323 59.4663 20.1134 61.1156 20.1134C62.2482 20.1134 63.2443 19.977 64.1124 19.7083C64.9762 19.4396 65.6748 19.1296 66.2121 18.77C66.6462 18.5137 66.9644 18.2203 67.1628 17.8937C67.3612 17.563 67.4646 17.1621 67.4646 16.6868V2.08326C67.4646 1.28963 67.2744 0.744023 66.8983 0.446414ZM63.0542 16.1205C62.8516 16.2403 62.5871 16.3519 62.2482 16.4635C61.9092 16.571 61.5207 16.6248 61.0867 16.6248C60.012 16.6248 59.1646 16.2982 58.5363 15.641C57.9122 14.9879 57.598 13.9628 57.598 12.574C57.598 11.6191 57.7468 10.8338 58.0444 10.2179C58.3462 9.60201 58.7595 9.14734 59.2969 8.84973C59.8342 8.55212 60.4501 8.40331 61.1445 8.40331C61.7397 8.40331 62.2688 8.50252 62.7235 8.70092C62.8392 8.75052 62.9509 8.80426 63.0542 8.858V16.1205Z" fill="#4CAF50"/>
<path d="M73.3629 16.1202C73.0446 15.463 72.7015 14.6694 72.3337 13.7352C71.9658 12.8011 71.5855 11.6974 71.1846 10.4285C70.7878 9.1595 70.3579 7.68799 69.9032 6.01808C70.1595 5.7618 70.4943 5.5386 70.8994 5.34846C71.3044 5.15832 71.7467 5.06738 72.2262 5.06738C72.8421 5.06738 73.3464 5.19552 73.7473 5.45593C74.1441 5.7122 74.4417 6.19995 74.6401 6.91504C75.0948 8.36588 75.5536 9.80433 76.0124 11.2345C76.4671 12.6647 76.9342 14.1073 77.4137 15.554H77.5336C77.8725 14.6611 78.2156 13.6484 78.5628 12.5159C78.91 11.3833 79.2324 10.2177 79.53 9.01483C79.8276 7.812 80.0839 6.65463 80.303 5.54273C80.5799 5.4022 80.8775 5.29059 81.1958 5.19966C81.5141 5.10872 81.8406 5.06738 82.1796 5.06738C82.7954 5.06738 83.3287 5.19965 83.7751 5.46833C84.2215 5.737 84.4447 6.18755 84.4447 6.8241C84.4447 7.38212 84.3579 8.06414 84.1925 8.87843C84.0231 9.69272 83.7999 10.5731 83.5229 11.5156C83.246 12.458 82.9153 13.4211 82.5392 14.4049C82.163 15.3886 81.7703 16.3352 81.3611 17.2487C80.9519 18.1622 80.5427 18.9889 80.1252 19.7205C79.0505 21.5888 78.0626 22.9818 77.1615 23.9077C76.2563 24.8294 75.3594 25.2924 74.4665 25.2924C73.7514 25.2924 73.1604 25.0733 72.6933 24.6352C72.2262 24.197 71.9451 23.6431 71.8459 22.9652C72.2841 22.6098 72.7305 22.1964 73.1852 21.7293C73.6398 21.2623 74.078 20.7662 74.4955 20.2413C74.9129 19.7163 75.2808 19.1955 75.5991 18.6789C75.2602 18.5796 74.9129 18.3606 74.5575 18.0216C74.1979 17.691 73.7969 17.0544 73.3629 16.1202Z" fill="#4CAF50"/>
<path d="M87.9045 21.9905C87.33 22.7469 86.5942 23.123 85.7014 23.123C84.945 23.123 84.3002 22.8957 83.7628 22.4369C84.0232 21.7011 84.263 20.9199 84.4944 20.0973C84.7218 19.2748 84.9326 18.4564 85.1186 17.6545C85.3087 16.8485 85.4617 16.121 85.5815 15.4637C85.8585 15.3067 86.2015 15.1703 86.6108 15.0628C87.0158 14.9553 87.4292 14.8975 87.8467 14.8975C88.4047 14.8975 88.8842 15.0215 89.2934 15.2695C89.7026 15.5175 89.9051 15.968 89.9051 16.6252C89.9051 17.1213 89.8018 17.7165 89.591 18.4109C89.3843 19.1053 89.1239 19.7749 88.818 20.4239C88.5039 21.0728 88.2021 21.5937 87.9045 21.9905Z" fill="#4CAF50"/>
<path d="M109.837 15.4963C109.837 16.9472 109.291 18.0839 108.196 18.9064C107.105 19.729 105.513 20.1423 103.43 20.1423C101.801 20.1423 100.462 19.9026 99.4081 19.4272C98.354 18.9519 97.8291 18.2451 97.8291 17.3109C97.8291 16.8934 97.92 16.5297 98.0978 16.2238C98.2755 15.9138 98.5028 15.6741 98.7839 15.4922C99.3378 15.8105 99.9909 16.1039 100.735 16.3726C101.479 16.6413 102.33 16.7736 103.281 16.7736C104.732 16.7736 105.455 16.3561 105.455 15.5211C105.455 15.1615 105.327 14.8804 105.067 14.6738C104.806 14.4671 104.381 14.31 103.785 14.2108L102.533 13.9132C100.946 13.5743 99.7553 13.0534 98.9741 12.3508C98.1887 11.6439 97.796 10.6767 97.796 9.44494C97.796 8.0561 98.3582 6.94833 99.4783 6.12164C100.599 5.29908 102.115 4.88574 104.021 4.88574C104.976 4.88574 105.844 4.98081 106.629 5.16681C107.415 5.35695 108.035 5.64216 108.493 6.0307C108.952 6.41925 109.18 6.89873 109.18 7.47741C109.18 7.87423 109.101 8.22144 108.94 8.51905C108.779 8.81665 108.572 9.06466 108.316 9.26307C108.097 9.12253 107.766 8.97373 107.32 8.81665C106.873 8.65958 106.385 8.52731 105.86 8.42811C105.335 8.32891 104.844 8.2793 104.385 8.2793C103.67 8.2793 103.112 8.37438 102.715 8.56038C102.318 8.75052 102.12 9.04399 102.12 9.4408C102.12 9.70121 102.235 9.92442 102.463 10.1104C102.69 10.3006 103.095 10.4535 103.67 10.5734L104.86 10.871C106.629 11.2678 107.898 11.8382 108.675 12.5864C109.448 13.3345 109.837 14.3018 109.837 15.4963Z" fill="#4CAF50"/>
<path d="M125.655 12.6033C125.994 12.285 126.164 11.8179 126.164 11.202C126.164 9.97026 125.874 8.88729 125.3 7.95313C124.721 7.0231 123.923 6.28321 122.903 5.73346C121.877 5.18785 120.679 4.91504 119.311 4.91504C118.376 4.91504 117.475 5.06384 116.611 5.36145C115.748 5.65906 114.975 6.11374 114.288 6.71723C113.602 7.32484 113.057 8.09366 112.652 9.02782C112.242 9.96199 112.04 11.0656 112.04 12.3346C112.04 14.0624 112.387 15.5049 113.081 16.654C113.776 17.8073 114.735 18.6712 115.958 19.2499C117.178 19.8244 118.554 20.1138 120.083 20.1138C121.138 20.1138 122.076 20.0145 122.903 19.8161C123.725 19.6177 124.37 19.3201 124.837 18.9192C125.304 18.5224 125.536 18.0264 125.536 17.4311C125.536 17.0715 125.445 16.7367 125.254 16.4184C125.064 16.1002 124.82 15.8522 124.523 15.6744C124.068 15.9307 123.473 16.1787 122.737 16.4184C122.001 16.654 121.216 16.7739 120.381 16.7739C119.348 16.7739 118.455 16.5424 117.703 16.0754C117.095 15.7034 116.678 15.1247 116.446 14.3517L124.258 13.1985C124.854 13.1199 125.321 12.9215 125.655 12.6033ZM116.173 11.3715C116.252 10.4084 116.566 9.65198 117.103 9.10223C117.703 8.49461 118.447 8.19287 119.339 8.19287C120.195 8.19287 120.84 8.43261 121.278 8.90796C121.712 9.3833 121.952 9.90412 121.993 10.458L116.173 11.3715Z" fill="#4CAF50"/>
<path d="M137.622 16.8932C137.75 17.1536 137.816 17.4512 137.816 17.786C137.816 18.4639 137.535 19.0178 136.981 19.4559C136.423 19.8941 135.489 20.1131 134.179 20.1131C132.509 20.1131 131.215 19.7329 130.289 18.9806C129.367 18.2242 128.904 16.9924 128.904 15.2853V1.84741C129.103 1.78541 129.38 1.72341 129.739 1.65314C130.095 1.58287 130.475 1.5498 130.872 1.5498C131.723 1.5498 132.339 1.69861 132.719 1.99622C133.096 2.29383 133.286 2.83944 133.286 3.63306V5.69153H137.427C137.527 5.8486 137.626 6.07594 137.725 6.37355C137.824 6.67115 137.874 7.00183 137.874 7.35731C137.874 7.95253 137.742 8.39067 137.473 8.66761C137.204 8.94869 136.841 9.08509 136.386 9.08509H133.286V14.9877C133.286 15.5415 133.463 15.9508 133.823 16.207C134.179 16.4674 134.687 16.5956 135.34 16.5956C135.638 16.5956 135.96 16.5625 136.311 16.4922C136.659 16.422 136.952 16.3393 137.188 16.2401C137.349 16.4178 137.489 16.6369 137.622 16.8932Z" fill="#4CAF50"/>
<path d="M139.482 17.5222C139.482 16.7865 139.717 16.1664 140.18 15.658C140.647 15.1496 141.267 14.8975 142.044 14.8975C142.838 14.8975 143.47 15.1496 143.938 15.658C144.405 16.1664 144.636 16.7865 144.636 17.5222C144.636 18.258 144.4 18.878 143.938 19.3864C143.475 19.8948 142.838 20.147 142.044 20.147C141.271 20.147 140.647 19.8948 140.18 19.3864C139.713 18.878 139.482 18.258 139.482 17.5222Z" fill="#4CAF50"/>
<path d="M54.3948 34.0186C58.2347 34.0186 61.2976 34.8204 63.5834 36.4284C65.8734 38.0321 67.0142 40.5163 67.0142 43.8727V56.4384C67.0142 57.3602 66.7745 58.1083 66.295 58.6787C65.8155 59.2533 65.2079 59.741 64.468 60.1461C63.3602 60.8116 61.9838 61.3366 60.3428 61.7251C58.7018 62.1136 56.8252 62.3079 54.7254 62.3079C50.9599 62.3079 47.9631 61.568 45.731 60.0924C43.499 58.6167 42.3829 56.4219 42.3829 53.5037C42.3829 50.9946 43.16 49.0643 44.7101 47.7168C46.2601 46.3693 48.5666 45.5509 51.6295 45.2533L58.9912 44.4803V43.8148C58.9912 42.5624 58.5034 41.6572 57.5238 41.1033C56.5442 40.5494 55.1512 40.2725 53.3449 40.2725C51.9436 40.2725 50.5672 40.4378 49.2197 40.7685C47.8722 41.0992 46.6652 41.4877 45.5946 41.93C45.1524 41.6365 44.7721 41.1818 44.4579 40.5742C44.1438 39.9666 43.9867 39.33 43.9867 38.6646C43.9867 37.1145 44.8341 35.9902 46.5329 35.2875C47.6035 34.8452 48.8477 34.5228 50.2696 34.3203C51.6915 34.1178 53.0638 34.0186 54.3948 34.0186ZM54.7254 56.1615C55.5728 56.1615 56.4119 56.0788 57.2427 55.9135C58.0735 55.7481 58.6729 55.5539 59.0408 55.3306V50.015L54.3906 50.4573C53.1341 50.5317 52.1379 50.788 51.4021 51.2303C50.6622 51.6725 50.2944 52.338 50.2944 53.2226C50.2944 54.1071 50.6457 54.8181 51.3443 55.3554C52.0511 55.8969 53.1754 56.1615 54.7254 56.1615Z" fill="#E63946"/>
<path d="M94.8615 53.6702C94.8615 56.3652 93.8447 58.4774 91.8151 60.0068C89.7856 61.5362 86.8343 62.305 82.9571 62.305C79.9314 62.305 77.439 61.8627 75.4838 60.9782C73.5287 60.0936 72.5491 58.7833 72.5491 57.0473C72.5491 56.2743 72.7144 55.6006 73.0492 55.026C73.3799 54.4556 73.8057 54.0009 74.3223 53.6702C75.3557 54.2613 76.5627 54.8069 77.9474 55.3029C79.3321 55.799 80.9111 56.0511 82.6802 56.0511C85.3752 56.0511 86.7227 55.2781 86.7227 53.724C86.7227 53.0585 86.483 52.5335 86.0035 52.145C85.524 51.7564 84.7304 51.4712 83.6226 51.2894L81.2955 50.7355C78.3442 50.1072 76.1369 49.14 74.682 47.8297C73.2228 46.5194 72.4954 44.7213 72.4954 42.4314C72.4954 39.848 73.537 37.7895 75.6244 36.2601C77.7077 34.7307 80.5225 33.9619 84.0649 33.9619C85.8382 33.9619 87.4502 34.1355 88.9093 34.4869C90.3684 34.8382 91.5216 35.3714 92.369 36.0906C93.2164 36.8099 93.6421 37.7068 93.6421 38.7774C93.6421 39.5173 93.4933 40.1621 93.1998 40.716C92.9064 41.2699 92.5178 41.7328 92.0383 42.1007C91.6333 41.8444 91.0132 41.5675 90.1865 41.2699C89.3557 40.9764 88.4505 40.7366 87.475 40.5506C86.4954 40.3646 85.5819 40.2737 84.7345 40.2737C83.4077 40.2737 82.3743 40.4514 81.6344 40.7986C80.8945 41.15 80.5267 41.6956 80.5267 42.4314C80.5267 42.9108 80.7375 43.3283 81.1632 43.6755C81.589 44.0269 82.333 44.3121 83.4077 44.5353L85.6232 45.0892C88.9093 45.8291 91.2695 46.8872 92.7121 48.2719C94.1423 49.6566 94.8615 51.4588 94.8615 53.6702Z" fill="#E63946"/>
<path d="M116.202 56.2733C116.442 56.7528 116.562 57.3067 116.562 57.9308C116.562 59.1874 116.045 60.2208 115.012 61.0309C113.979 61.8452 112.247 62.2503 109.808 62.2503C106.708 62.2503 104.302 61.5476 102.587 60.1464C100.867 58.7451 100.012 56.4552 100.012 53.2807V28.3146C100.379 28.203 100.896 28.0832 101.562 27.955C102.227 27.8227 102.926 27.7607 103.666 27.7607C105.253 27.7607 106.394 28.0377 107.096 28.5916C107.799 29.1454 108.15 30.1581 108.15 31.6338V35.4572H115.843C116.029 35.7507 116.211 36.1765 116.397 36.7303C116.583 37.2842 116.674 37.8918 116.674 38.5573C116.674 39.661 116.426 40.4752 115.925 40.9919C115.429 41.5086 114.756 41.7649 113.908 41.7649H108.15V52.7268C108.15 53.7602 108.481 54.5207 109.147 54.9961C109.808 55.4797 110.75 55.7194 111.97 55.7194C112.524 55.7194 113.123 55.6533 113.768 55.5252C114.413 55.3929 114.958 55.2399 115.4 55.0539C115.694 55.3846 115.963 55.7897 116.202 56.2733Z" fill="#E63946"/>
<path d="M132.232 34.0186C136.068 34.0186 139.135 34.8204 141.42 36.4284C143.71 38.0321 144.851 40.5163 144.851 43.8727V56.4384C144.851 57.3602 144.611 58.1083 144.132 58.6787C143.653 59.2533 143.045 59.741 142.305 60.1461C141.197 60.8116 139.821 61.3366 138.18 61.7251C136.539 62.1136 134.666 62.3079 132.562 62.3079C128.797 62.3079 125.8 61.568 123.568 60.0924C121.336 58.6167 120.22 56.4219 120.22 53.5037C120.22 50.9946 120.993 49.0643 122.547 47.7168C124.097 46.3693 126.404 45.5509 129.467 45.2533L136.828 44.4803V43.8148C136.828 42.5624 136.34 41.6572 135.361 41.1033C134.381 40.5494 132.988 40.2725 131.182 40.2725C129.781 40.2725 128.404 40.4378 127.057 40.7685C125.709 41.0992 124.502 41.4877 123.432 41.93C122.989 41.6365 122.609 41.1818 122.295 40.5742C121.981 39.9666 121.824 39.33 121.824 38.6646C121.824 37.1145 122.671 35.9902 124.37 35.2875C125.441 34.8452 126.685 34.5228 128.107 34.3203C129.524 34.1178 130.901 34.0186 132.232 34.0186ZM132.562 56.1615C133.41 56.1615 134.249 56.0788 135.08 55.9135C135.911 55.7481 136.51 55.5539 136.878 55.3306V50.015L132.228 50.4573C130.971 50.5317 129.975 50.788 129.239 51.2303C128.499 51.6725 128.131 52.338 128.131 53.2226C128.131 54.1071 128.483 54.8181 129.185 55.3554C129.884 55.8969 131.012 56.1615 132.562 56.1615Z" fill="#E63946"/>
<path d="M152.535 55.7779C152.535 53.8146 153.176 52.1777 154.457 50.8674C155.739 49.5571 157.471 48.904 159.653 48.904C161.782 48.904 163.485 49.5571 164.766 50.8674C166.048 52.1777 166.688 53.8146 166.688 55.7779C166.688 57.7951 166.048 59.4609 164.766 60.767C163.485 62.0773 161.778 62.7304 159.653 62.7304C157.471 62.7304 155.739 62.0773 154.457 60.767C153.172 59.4609 152.535 57.7951 152.535 55.7779ZM165.87 15.2784C165.87 16.6424 165.841 18.457 165.787 20.718C165.734 22.9831 165.634 25.4756 165.502 28.2037C165.366 30.9318 165.188 33.6185 164.969 36.2639C164.75 38.9093 164.477 41.2943 164.15 43.4231C163.77 43.7496 163.088 44.01 162.104 44.2001C161.121 44.3903 160.277 44.4854 159.566 44.4854C158.256 44.4854 157.124 44.2539 156.173 43.7909C155.218 43.328 154.631 42.4972 154.412 41.2943C154.193 39.9303 153.99 38.0372 153.8 35.6067C153.61 33.1804 153.445 30.4936 153.308 27.5465C153.172 24.5993 153.077 21.71 153.023 18.8745C152.969 16.0389 152.94 13.5547 152.94 11.4301C154.958 10.2314 157.248 9.62793 159.814 9.62793C161.724 9.62793 163.208 10.0909 164.274 11.0209C165.337 11.9509 165.87 13.3687 165.87 15.2784Z" fill="#E63946"/>
</svg>
